<svg width="27" height="17" viewBox="0 0 27 17" version="1.1" xmlns="http://www.w3.org/2000/svg" xmlns:xlink="http://www.w3.org/1999/xlink">
<title>Hotel-icon</title>
<desc>Created using Figma</desc>
<g id="Canvas" transform="translate(-10747 -13843)">
<g id="Hotel-icon">
<g id="hotels copy 2">
<g id="Fill 1">
<use xlink:href="#path0_fill" transform="translate(10751.4 13846.7)" fill="#707482"/>
</g>
<g id="Fill 3">
<use xlink:href="#path1_fill" transform="translate(10747 13843)" fill="#707482"/>
</g>
</g>
</g>
</g>
<defs>
<path id="path0_fill" fill-rule="evenodd" d="M 0 9.5964e-06L 15.7202 9.5964e-06C 17.202 -0.00351808 18.0715 0.965932 18.0692 2.27033L 18.0692 5.60769L 0 5.60769L 0 9.5964e-06Z"/>
<path id="path1_fill" fill-rule="evenodd" d="M 2.75691 1.49699C 2.75406 -0.498997 -0.00198473 -0.498997 1.0726e-06 1.49699L 1.0726e-06 16.4077L 2.81898 16.4077L 2.81898 14.4617L 24.2579 14.4617L 24.2579 16.3766L 27 16.3766L 27 8.01239C 27.0071 5.90699 24.2208 5.90699 24.2274 8.01239L 24.2274 11.1306L 2.75691 11.1306L 2.75691 1.49699Z"/>
</defs>
</svg>
