<?xml version="1.0" encoding="UTF-8"?>
<svg width="26px" height="25px" viewBox="0 0 26 25" version="1.1" xmlns="http://www.w3.org/2000/svg" xmlns:xlink="http://www.w3.org/1999/xlink">
    <!-- Generator: Sketch 50 (54983) - http://www.bohemiancoding.com/sketch -->
    <title>Group</title>
    <desc>Created with Sketch.</desc>
    <defs>
        <polygon id="path-1" points="0 24.4106 25.919 24.4106 25.919 -0.0004 0 -0.0004"></polygon>
    </defs>
    <g id="Home-Page" stroke="none" stroke-width="1" fill="none" fill-rule="evenodd">
        <g id="00-delta-home-productfirst-1440" transform="translate(-483.000000, -802.000000)">
            <g id="Shopping-Band" transform="translate(0.000000, 770.000000)">
                <g id="vacations" transform="translate(462.000000, 30.000000)">
                    <g id="Group" transform="translate(21.000000, 2.000000)">
                        <path d="M8.0369,24.4103 L25.9189,24.4073 L25.9189,23.5263 C25.9189,22.9573 25.3719,22.6863 24.6969,22.6863 L8.0369,22.6903 L8.0369,24.4103 Z" id="Fill-1" fill="#707482"></path>
                        <path d="M6.0643,24.4103 L0.0003,24.4103 L0.0003,23.4893 C0.0003,23.0463 0.3593,22.6863 0.8033,22.6863 L6.0643,22.6863 L6.0643,24.4103 Z" id="Fill-3" fill="#707482"></path>
                        <path d="M20.4451,7.131 C20.4451,7.131 11.0651,2.848 10.2021,2.349 C9.3391,1.851 8.7371,1.373 9.0201,0.911 C9.3041,0.45 10.1991,0.526 11.1051,0.819 C12.0101,1.11 14.1931,2.131 14.1931,2.131 L18.5461,-3.55271368e-15 L19.7051,0.629 L16.8401,3.707 L19.7581,5.43 L21.6871,4.615 L22.5771,5.189 L20.4451,7.131 Z" id="Fill-5" fill="#707481"></path>
                        <mask id="mask-2" fill="white">
                            <use xlink:href="#path-1"></use>
                        </mask>
                        <g id="Clip-8"></g>
                        <polygon id="Fill-7" fill="#707482" mask="url(#mask-2)" points="4.086 9.0126 9.922 9.0126 9.922 4.2416 4.086 4.2416"></polygon>
                        <path d="M7.868,10.8656 L9.796,10.8656 L9.796,9.1666 L7.868,9.1666 L7.868,10.8656 Z M7.868,13.2956 L9.796,13.2956 L9.796,11.5966 L7.868,11.5966 L7.868,13.2956 Z M7.868,15.7246 L9.796,15.7246 L9.796,14.0256 L7.868,14.0256 L7.868,15.7246 Z M4.199,10.8656 L6.244,10.8656 L6.244,9.1666 L4.199,9.1666 L4.199,10.8656 Z M4.199,13.2956 L6.244,13.2956 L6.244,11.5966 L4.199,11.5966 L4.199,13.2956 Z M4.199,15.7246 L6.244,15.7246 L6.244,14.0256 L4.199,14.0256 L4.199,15.7246 Z M11.915,7.3426 L9.808,7.3426 L2.207,7.3426 L2.207,23.0136 L6.075,23.0136 L6.075,19.1516 L8.044,19.1516 L8.044,23.0136 L11.142,23.0136 L11.915,23.0136 L11.915,7.3426 Z" id="Fill-9" fill="#707482" mask="url(#mask-2)"></path>
                        <path d="M23.7654,19.2766 C23.0924,19.2766 22.5474,18.6856 22.5474,17.9586 C22.5474,17.2296 23.0924,16.6396 23.7654,16.6396 C24.4384,16.6396 24.9834,17.2296 24.9834,17.9586 C24.9834,18.6856 24.4384,19.2766 23.7654,19.2766 Z M15.9474,19.2766 C15.2744,19.2766 14.7284,18.6856 14.7284,17.9586 C14.7284,17.2296 15.2744,16.6396 15.9474,16.6396 C16.6194,16.6396 17.1654,17.2296 17.1654,17.9586 C17.1654,18.6856 16.6194,19.2766 15.9474,19.2766 Z M16.3224,11.9386 L23.2334,11.9386 L24.1514,15.3086 L15.4044,15.3086 L16.3224,11.9386 Z M25.1814,15.6306 C25.1194,15.5376 25.0444,15.4566 24.9824,15.4026 L23.9654,11.6836 C23.8664,11.3356 23.5684,11.0926 23.2334,11.0926 L16.2974,11.0926 C15.9624,11.0926 15.6524,11.3346 15.5654,11.6836 L14.5604,15.4026 C14.4984,15.4566 14.4364,15.5376 14.3614,15.6306 C13.9144,16.2216 13.6914,16.9736 13.6914,17.7386 L13.6914,20.3566 C13.6914,20.5856 13.8654,20.7736 14.0764,20.7736 L15.1184,20.7736 L15.1184,22.2766 C15.1184,22.6126 15.3664,22.8806 15.6774,22.8806 L16.1114,22.8806 C16.4214,22.8806 16.6694,22.6126 16.6694,22.2766 L16.6694,20.7736 L22.8984,20.7736 L22.8984,22.2766 C22.8984,22.6126 23.1464,22.8806 23.4564,22.8806 L23.8904,22.8806 C24.2014,22.8806 24.4494,22.6126 24.4494,22.2766 L24.4494,20.7736 L25.3294,20.7736 C25.6274,20.7736 25.8754,20.5056 25.8754,20.1826 L25.8754,17.7256 C25.8504,16.9736 25.6274,16.2216 25.1814,15.6306 Z" id="Fill-10" fill="#707482" mask="url(#mask-2)"></path>
                    </g>
                </g>
            </g>
        </g>
    </g>
</svg>